<svg width="16" height="16" viewBox="0 0 16 16" fill="none" xmlns="http://www.w3.org/2000/svg">
<path fill-rule="evenodd" clip-rule="evenodd" d="M4.23423 5.8344C4.38425 5.68442 4.5877 5.60017 4.79983 5.60017C5.01196 5.60017 5.21541 5.68442 5.36543 5.8344L7.99983 8.4688L10.6342 5.8344C10.708 5.75799 10.7963 5.69705 10.8939 5.65512C10.9915 5.61319 11.0965 5.59112 11.2027 5.5902C11.3089 5.58928 11.4143 5.60952 11.5126 5.64974C11.6109 5.68997 11.7002 5.74937 11.7753 5.82448C11.8505 5.8996 11.9099 5.98892 11.9501 6.08724C11.9903 6.18555 12.0106 6.2909 12.0096 6.39712C12.0087 6.50335 11.9866 6.60832 11.9447 6.70592C11.9028 6.80353 11.8418 6.8918 11.7654 6.9656L8.56543 10.1656C8.41541 10.3156 8.21196 10.3998 7.99983 10.3998C7.7877 10.3998 7.58425 10.3156 7.43423 10.1656L4.23423 6.9656C4.08425 6.81558 4 6.61213 4 6.4C4 6.18787 4.08425 5.98442 4.23423 5.8344Z" fill="#1A1919"/>
</svg>
